<?xml version="1.0" standalone="no"?>
<!DOCTYPE svg PUBLIC "-//W3C//DTD SVG 20010904//EN"
 "http://www.w3.org/TR/2001/REC-SVG-20010904/DTD/svg10.dtd">
<svg version="1.0" xmlns="http://www.w3.org/2000/svg"
 width="512.000000pt" height="512.000000pt" viewBox="0 0 512.000000 512.000000"
 preserveAspectRatio="xMidYMid meet">

<g transform="translate(0.000000,512.000000) scale(0.100000,-0.100000)"
fill="#FFBA49" stroke="none">
<path d="M2510 4953 c-21 -9 -1944 -1118 -2004 -1156 -93 -59 -86 45 -86
-1236 0 -1115 0 -1125 21 -1167 13 -28 36 -53 67 -72 26 -16 486 -283 1022
-593 964 -557 976 -564 1030 -564 55 0 63 4 1030 564 536 309 996 576 1022
593 31 19 54 44 67 72 21 42 21 53 21 1166 0 1113 0 1124 -21 1166 -13 28 -36
53 -67 72 -26 17 -486 283 -1022 593 -840 485 -981 563 -1020 565 -25 2 -52 1
-60 -3z m884 -819 c445 -258 809 -474 808 -479 0 -5 -369 -222 -820 -482
l-821 -473 -825 478 c-454 262 -826 479 -826 482 0 3 368 217 818 477 499 288
825 471 837 469 11 -2 384 -214 829 -472z m-1766 -1264 l771 -445 1 -913 0
-912 -37 19 c-21 11 -393 226 -828 478 l-790 458 -3 913 -2 913 58 -33 c32
-18 406 -233 830 -478z m2752 -402 l0 -913 -762 -440 c-419 -242 -792 -457
-830 -478 l-68 -39 0 914 1 913 827 478 c454 262 828 477 829 477 2 0 3 -411
3 -912z"/>
</g>
</svg>
