<?xml version="1.0" standalone="no"?>
<!DOCTYPE svg PUBLIC "-//W3C//DTD SVG 20010904//EN"
 "http://www.w3.org/TR/2001/REC-SVG-20010904/DTD/svg10.dtd">
<svg version="1.0" xmlns="http://www.w3.org/2000/svg"
 width="512.000000pt" height="512.000000pt" viewBox="0 0 512.000000 512.000000"
 preserveAspectRatio="xMidYMid meet">

<g transform="translate(0.000000,512.000000) scale(0.100000,-0.100000)"
fill="#FFBA49" stroke="none">
<path d="M1510 4515 c-575 -333 -1043 -608 -1040 -612 2 -5 473 -279 1047
-610 l1043 -602 1043 601 c573 331 1046 604 1050 608 6 5 -2085 1222 -2095
1219 -2 0 -473 -272 -1048 -604z m1813 -182 c406 -234 734 -429 730 -433 -12
-10 -1467 -848 -1484 -855 -14 -5 -1492 842 -1498 859 -4 14 1482 867 1499
861 8 -4 347 -198 753 -432z"/>
<path d="M2037 4125 c-203 -117 -368 -216 -368 -220 0 -4 166 -103 368 -220
l368 -212 3 219 c1 121 1 315 0 432 l-3 214 -368 -213z"/>
<path d="M2710 3905 l0 -437 23 14 c12 8 177 104 367 213 190 109 349 201 353
205 5 4 -151 99 -345 210 -194 112 -363 210 -375 218 l-23 14 0 -437z"/>
<path d="M310 2426 l0 -1214 1028 -593 c565 -326 1037 -599 1050 -607 l22 -14
-2 1218 -3 1218 -1010 584 c-556 321 -1027 592 -1047 603 l-38 19 0 -1214z
m1058 261 l742 -429 0 -869 0 -869 -48 27 c-27 16 -364 210 -750 433 l-702
405 0 868 c0 478 4 867 8 865 5 -1 342 -196 750 -431z"/>
<path d="M910 2169 c0 -236 3 -428 8 -426 98 52 731 424 730 429 -3 7 -725
428 -734 428 -2 0 -4 -194 -4 -431z"/>
<path d="M1439 1696 c-201 -116 -366 -215 -366 -221 0 -5 164 -105 366 -221
l366 -212 3 220 c1 121 1 315 0 433 l-3 213 -366 -212z"/>
<path d="M3760 3037 l-1045 -603 -3 -1218 -2 -1218 22 14 c13 8 485 281 1051
607 l1027 593 0 1214 c0 668 -1 1214 -3 1214 -2 0 -473 -271 -1047 -603z m750
-784 l0 -868 -702 -405 c-386 -223 -723 -417 -750 -433 l-48 -27 0 869 0 869
743 430 c408 236 745 430 750 431 4 1 7 -389 7 -866z"/>
<path d="M3835 2389 c-198 -115 -361 -213 -363 -217 -1 -5 631 -377 731 -429
4 -2 7 190 7 426 0 237 -3 431 -7 430 -5 0 -170 -95 -368 -210z"/>
<path d="M3310 1475 l0 -437 23 14 c12 8 181 106 375 218 194 111 350 206 345
210 -4 4 -159 94 -343 200 -184 106 -350 201 -367 212 l-33 20 0 -437z"/>
</g>
</svg>
